<svg id="Layer_1" enable-background="new 0 0 512 512" height="512" viewBox="0 0 512 512" width="512" xmlns="http://www.w3.org/2000/svg"><g><path d="m437.019 74.979c-48.352-48.351-112.639-74.979-181.019-74.979-68.379 0-132.666 26.628-181.018 74.979-48.353 48.353-74.982 112.64-74.982 181.021 0 68.38 26.629 132.667 74.982 181.02 48.352 48.352 112.639 74.98 181.018 74.98 68.38 0 132.667-26.628 181.019-74.98 48.352-48.353 74.981-112.64 74.981-181.02 0-68.381-26.629-132.668-74.981-181.021zm-181.019 407.021c-124.617 0-226-101.383-226-226s101.383-226 226-226 226 101.383 226 226-101.383 226-226 226z"/><path d="m429.074 200.316c-69.507-31.201-143.688-47.021-220.48-47.021-38.186 0-76.313 4.015-113.32 11.933-8.101 1.733-13.263 9.705-11.53 17.806s9.705 13.267 17.806 11.53c34.949-7.477 70.963-11.269 107.043-11.269 72.53 0 142.577 14.935 208.195 44.39 1.995.896 4.081 1.319 6.134 1.319 5.727 0 11.196-3.298 13.693-8.861 3.394-7.557.017-16.434-7.541-19.827z"/><path d="m366.8 341.644c-49.848-22.534-103.077-33.96-158.208-33.96-29.336 0-58.574 3.318-86.903 9.862-8.072 1.865-13.104 9.92-11.239 17.991 1.865 8.072 9.92 13.103 17.991 11.239 26.118-6.034 53.085-9.093 80.151-9.093 50.841 0 99.912 10.53 145.851 31.297 2.005.906 4.104 1.335 6.17 1.335 5.712 0 11.171-3.281 13.677-8.825 3.412-7.547.059-16.433-7.49-19.846z"/><path d="m398.431 269.855c-59.838-26.937-123.709-40.594-189.839-40.594-33.828 0-67.583 3.669-100.327 10.905-8.089 1.788-13.197 9.794-11.41 17.883s9.796 13.201 17.883 11.41c30.622-6.767 62.198-10.198 93.853-10.198 61.855 0 121.583 12.769 177.524 37.951 1.999.899 4.09 1.326 6.148 1.326 5.721 0 11.186-3.291 13.687-8.847 3.402-7.555.035-16.435-7.519-19.836z"/></g></svg>