<svg id="Layer_1" enable-background="new 0 0 512 512" height="512" viewBox="0 0 512 512" width="512" xmlns="http://www.w3.org/2000/svg"><g><g><path d="m437.019 74.979c-48.352-48.351-112.639-74.979-181.019-74.979-68.379 0-132.666 26.628-181.019 74.979s-74.981 112.64-74.981 181.021c0 68.38 26.629 132.667 74.981 181.02 48.353 48.351 112.64 74.98 181.019 74.98 68.38 0 132.667-26.629 181.019-74.98 48.352-48.353 74.981-112.64 74.981-181.02 0-68.381-26.629-132.669-74.981-181.021z" fill="#54e360"/><path d="m437.019 74.979c-48.352-48.351-112.639-74.979-181.019-74.979v512c68.38 0 132.667-26.629 181.019-74.98 48.352-48.353 74.981-112.64 74.981-181.02 0-68.381-26.629-132.668-74.981-181.021z" fill="#00b44b"/><g><g><path d="m422.923 229.005c-2.053 0-4.14-.424-6.134-1.319-65.619-29.455-135.666-44.39-208.195-44.39-36.08 0-72.095 3.791-107.043 11.269-8.106 1.735-16.074-3.43-17.807-11.529-1.733-8.102 3.429-16.073 11.529-17.807 37.008-7.918 75.135-11.933 113.32-11.933 76.793 0 150.973 15.82 220.48 47.021 7.558 3.393 10.935 12.27 7.542 19.827-2.496 5.563-7.965 8.861-13.692 8.861z" fill="#132f3b"/></g><g><path d="m360.612 370.316c-2.066 0-4.165-.43-6.17-1.336-45.938-20.767-95.01-31.297-145.851-31.297-27.066 0-54.033 3.06-80.151 9.093-8.069 1.86-16.126-3.166-17.991-11.239-1.864-8.071 3.167-16.126 11.239-17.991 28.329-6.544 57.567-9.862 86.903-9.862 55.131 0 108.36 11.426 158.208 33.961 7.549 3.412 10.902 12.298 7.489 19.847-2.505 5.543-7.964 8.823-13.676 8.824z" fill="#132f3b"/></g><g><path d="m392.265 298.537c-2.059 0-4.149-.426-6.148-1.326-55.941-25.182-115.669-37.95-177.524-37.95-31.655 0-63.231 3.432-93.854 10.198-8.087 1.789-16.096-3.321-17.883-11.409-1.788-8.09 3.32-16.097 11.409-17.884 32.744-7.236 66.499-10.905 100.327-10.905 66.13 0 130.001 13.658 189.839 40.595 7.554 3.4 10.921 12.281 7.521 19.835-2.502 5.555-7.966 8.846-13.687 8.846z" fill="#132f3b"/></g></g></g><g fill="#0e232c"><path d="m429.074 200.316c-55.096-24.731-113.132-39.789-173.074-44.973v30.111c55.677 5.104 109.581 19.245 160.789 42.231 1.994.896 4.081 1.319 6.134 1.319 5.728 0 11.196-3.298 13.693-8.861 3.393-7.557.016-16.434-7.542-19.827z"/><path d="m354.442 368.98c2.005.906 4.104 1.336 6.17 1.336 5.712-.001 11.171-3.281 13.677-8.825 3.413-7.549.06-16.435-7.489-19.847-35.403-16.005-72.515-26.399-110.8-31.084v30.241c33.993 4.522 66.954 13.945 98.442 28.179z"/><path d="m386.116 297.211c1.999.9 4.09 1.326 6.148 1.326 5.722 0 11.186-3.291 13.687-8.847 3.4-7.554.033-16.435-7.521-19.835-45.412-20.442-93.148-33.229-142.431-38.21v30.164c45.006 4.872 88.605 16.715 130.117 35.402z"/></g></g></svg>